Patient4_TMGait_0pt4_01_left_28_EMG.mot
version=1
nRows=29
nColumns=33
inDegrees=no
endheader
time	1LAddLong	2LGlutMax	3LGlutMed	4LIliopsoas	5LSemiMemb	6LBicFemLong	7LRecFem	8LVastMed	9LVastLat	10LGasMed	11LTibAnt	12lTibPost	13LPeroneusLong	14LSol	15LExtDigLong	16LFlexDigLong	17RAddLong	18RGlutMax	19RGlutMed	20RIliopsoas	21RSemiMemb	22RBicFemLong	23RRecFem	24RVastMed	25RVastLat	26RGasMed	27RTibAnt	28RTibPost	29RPeroneusLong	30RSol	31RExtDigLong	32RFlexDigLong
34.56	-0.007477	-0.084534	-0.099792	0.010071	-0.009308	0.26123	-0.29266	0.000763	-0.067444	-0.002289	-0.13626	0.013275	0.051575	-0.028992	-0.16861	0.075684	-0.013428	-0.085602	-0.010681	-0.043488	-0.043945	-0.02243	0.27405	-0.009308	0.024261	-0.00061	-0.13763	-0.009003	-0.042725	0.024719	-0.002747	-0.00473
34.561	-0.00412	-0.054932	-0.087128	0.000305	-0.010071	0.44464	-0.26199	-0.00412	-0.094757	-0.010223	-0.14847	0.019836	0.14114	-0.080872	-0.10117	0.019989	-0.002289	-0.080872	-0.007782	-0.066528	-0.066528	-0.036926	0.30197	-0.084991	0.017395	-0.007324	-0.22293	-0.013733	-0.063782	0.049438	-0.003967	-0.006561
34.562	0.003052	-0.024567	-0.014038	0.000763	-0.020905	0.52017	-0.29587	0.008698	-0.12482	-0.041504	-0.099182	0.024719	0.92651	-0.018158	-0.052795	0.01709	-0.002747	-0.091553	-0.027161	-0.12238	-0.081787	-0.083771	0.2536	-0.083618	0.002136	-0.000916	-0.50476	-0.010834	0.064392	-0.062103	-0.001221	-0.005188
34.563	-0.002441	-0.036469	-0.009613	-0.01297	-0.041199	0.54871	-0.28412	0.036926	-0.14267	-0.025024	-0.044556	0.021362	0.20844	0.048523	0.000916	-0.001831	-0.002289	-0.05661	0.014496	-0.103	-0.08316	-0.088501	0.28259	-0.083618	0.014191	0.006866	-0.6546	-0.002747	0.17716	-0.1416	-0.001373	-0.007935
34.564	-0.011139	-0.035858	-0.15305	0.018311	-0.074615	0.40726	-0.2919	0.020142	-0.1294	-0.033264	-0.04425	0.017853	-0.43121	0.083923	0.14618	-0.003357	-0.007935	-0.051422	0.10269	-0.066071	-0.087585	-0.063324	0.27008	-0.075684	0.00824	0.001068	0.12466	-0.009308	0.14404	-0.033875	-0.005035	-0.007629
34.565	-0.019379	-0.039978	-0.1236	0.003967	-0.087128	0.10834	-0.3392	0.011444	-0.078125	-0.026855	-0.007782	0.060425	-0.17883	0.082855	0.15289	-0.001984	-0.022278	-0.027466	0.1265	0.052032	-0.07782	0.002441	0.29862	-0.065765	-0.003357	-0.000305	0.45883	-0.010223	0.087738	0.069122	-0.006561	-0.018005
34.566	-0.007477	0.002289	-0.19028	-0.00061	-0.084991	-0.12344	-0.47134	0.003815	-0.029602	-0.041809	0.029602	0.081177	0.69504	0.11765	0.16083	-0.011749	-0.028534	-0.028839	-0.000153	0.15976	-0.057983	0.057526	0.29465	-0.076904	0.015106	-0.001373	0.73471	-0.012207	-0.011597	0.073853	-0.003357	-0.015564
34.567	0.009613	0.074158	-0.16571	-0.001984	-0.036469	-0.37048	-0.53116	0.006561	0.077057	-0.00412	0.037689	0.071411	0.65018	0.080109	0.14664	-0.011902	-0.040436	-0.045013	-0.032501	0.21576	-0.022278	0.084839	0.28244	-0.036469	-0.007019	0.004425	0.63278	-0.00946	-0.048676	0.035095	-0.001831	-0.020294
34.568	0.015564	0.032043	-0.032959	-0.003204	-0.05249	-0.74646	-0.47409	-0.002747	0.1413	0.027924	0.011444	0.053864	0.036774	0.11704	0.075684	-0.007782	-0.026855	-0.057678	-0.069275	0.19821	-0.016937	0.076904	0.27023	-0.061035	-0.010681	0.00412	0.495	-0.009766	0.022125	-0.015869	-0.003967	0.00061
34.569	0.022278	0.031891	-0.020599	-0.005951	-0.06012	-0.64575	-0.47379	-0.041351	0.11353	-0.020447	0.015259	0.047302	-0.26688	0.049133	0.015259	0.005341	-0.007019	-0.085144	0.0177	0.077515	-0.033875	0.028076	0.25803	-0.080566	-0.016174	0.009003	-0.20767	-0.008698	0.022278	-0.048676	-0.003662	-0.013275
34.57	0.028076	0.033417	0.076599	0.008698	0.014191	-0.1857	-0.39902	-0.014343	0.10254	-0.025787	-0.032501	0.041656	-0.34607	-0.045929	-0.063934	-0.007477	0.018921	-0.056458	0.04776	-0.019073	-0.037384	-0.033264	0.23697	-0.042877	-0.00351	0.000305	-0.86731	-0.010223	-0.033722	-0.0177	0.003204	-0.014496
34.571	0.017853	0.052185	-0.030212	-0.014954	0.097198	0.23529	-0.28549	-0.004883	-0.010071	0.005341	0.00885	0.023041	-0.34714	-0.052643	-0.15106	-0.009155	0.030975	-0.09079	0.040894	-0.003052	-0.044708	-0.049286	0.22797	-0.043488	-0.002899	0.002747	-0.34515	-0.003815	-0.053253	-0.015869	-0.003815	-0.015259
34.572	0.002594	0.068817	0.057068	-0.031128	0.082855	0.31204	-0.25375	0.007019	-0.10742	0.00885	-0.009308	0.02655	-0.48386	-0.003967	-0.17929	-0.013275	0.054626	-0.073853	0.009766	-0.003204	-0.054626	-0.046997	0.21515	-0.051422	-0.012207	0.000916	-0.084839	-0.011292	-0.040283	-0.009918	0.000916	-0.01297
34.573	0.001068	0.071106	0.055695	-0.009155	0.025177	0.2298	-0.25314	0.022583	-0.080261	-0.03067	-0.004425	0.018768	-0.35416	0.12192	0.11993	-0.007782	0.066681	-0.058289	0.051727	0.048828	-0.055237	-0.060425	0.22797	-0.039215	-0.02243	0.003815	-0.06134	-0.00412	-0.056915	0.000153	-0.001678	-0.009766
34.574	-0.023804	0.078735	-0.021515	0.002136	0.007019	0.095062	-0.23651	0.020599	-0.093079	-0.043793	0.000458	0.007935	0.30624	0.12924	0.20172	-0.009766	0.060883	-0.059967	0.078888	0.13199	-0.043335	-0.065308	0.22247	-0.10178	-0.017242	0.006409	-0.10193	-0.009766	-0.004578	0.027161	-0.003357	-0.00351
34.575	-0.038605	0.12512	0.15854	0.02243	-0.040283	-0.006104	-0.33188	0.026703	-0.037994	-0.029449	-0.011597	0.005493	-0.28931	0.032501	0.059052	0.007782	0.024109	-0.036316	0.031891	0.13214	-0.037231	-0.023651	0.23071	-0.12131	-0.010376	0.007324	-0.064545	-0.005341	-0.026855	0.023041	-0.000153	-0.011902
34.576	-0.034943	0.12253	0.040588	-0.012207	-0.050201	-0.071716	-0.43015	0.028229	-0.023956	-0.012665	0.007477	0.000458	-0.52551	-0.10468	0.034637	-0.005035	-0.029755	-0.026855	-0.030975	0.028381	-0.044708	-0.015259	0.16617	-0.075073	-0.00824	0.008087	-0.032654	-0.008698	-0.12207	-0.029907	-0.000916	-0.005341
34.577	-0.023651	0.11704	-0.091095	0.021362	-0.15823	-0.11841	-0.42923	0.018311	-0.000458	-0.087128	0.009613	-0.012665	0.17029	0.033875	0.099335	-0.002289	-0.042725	-0.009308	-0.038452	-0.089722	-0.050049	-0.014801	0.16602	-0.009155	-0.009308	0.006409	0.02655	-0.006256	-0.094147	-0.039673	-0.001221	-0.00946
34.578	-0.006561	0.10284	-0.10513	0.021973	-0.20447	0.048523	-0.41168	-0.00061	0.004578	-0.18082	0.010529	-0.019226	0.4097	0.022125	0.039215	0	-0.04837	-0.009155	0.032349	-0.15686	-0.041809	0.008545	0.18768	-0.023346	-0.021667	0.007019	0.027313	-0.003815	-0.04837	0.009766	-0.004425	-0.00061
34.579	-0.001678	0.10986	0.048523	-0.011597	-0.076599	0.1059	-0.31006	-0.027161	-0.00351	-0.25726	0.029602	-0.019073	0.16571	-0.089111	-0.15091	-0.039368	-0.02655	0.011597	0.025787	-0.16495	-0.040131	0.052185	0.19913	0.014801	-0.030975	0.001068	-0.074158	-0.00351	-0.006866	0.002594	-0.004425	-0.009613
34.58	0.010071	0.15396	0.23682	-0.016479	0.012665	-0.083466	-0.1886	-0.027771	-0.048065	-0.23987	0.032349	-0.016174	0.25345	-0.030212	-0.090179	0.000916	-0.009308	0.032349	0.096436	0.002899	-0.031891	0.08316	0.16724	0.067596	-0.007629	0.001831	-0.089722	-0.002594	0.047913	-0.005951	0.003204	-0.019684
34.581	-0.009766	0.14053	0.13809	0.012512	0.041809	-0.31158	-0.13748	-0.003052	-0.11169	0.051575	0.019379	-0.026703	0.16174	0.044861	0.21103	0.081024	0.039673	0.091248	0.1564	0.25345	-0.002747	0.048218	0.22705	0.026398	-0.015411	0.005035	-0.006409	-0.002747	0.016022	0.011749	-0.002747	-0.014496
34.582	-0.003052	0.15823	-0.000458	0.014191	0.065002	-0.44495	-0.168	0.010986	-0.12146	0.14664	0.036926	-0.024414	-0.66391	-0.12054	0.30106	-0.1297	0.04425	0.14038	0.073395	0.29434	0.000916	0.058746	0.16907	0.067444	-0.029449	0.006714	0.008087	-0.000916	-0.089722	0.034485	-0.00351	-0.018158
34.583	0.010681	0.15671	-0.052948	0.010834	0.040588	-0.3096	-0.26291	0.020752	0.071106	0.15442	0.014038	-0.022125	-0.26474	-0.37598	0.18127	0.063324	0.026398	0.20905	0.077209	0.037689	0.000153	0.053253	0.18265	0.11032	-0.018158	0.007629	0.041504	-0.002899	-0.28107	-0.009766	-0.003967	-0.0177
34.584	0.019379	0.14816	0.009766	0.009918	0.019989	-0.18738	-0.31509	0.028534	0.27115	0.049744	-0.045319	-0.022125	1.2872	-0.44571	0.11261	0.20309	0.037231	0.26352	0.22247	-0.062866	0.006409	0.05127	0.21439	0.069427	-0.0177	0.01358	0.054169	-0.00351	-0.32425	-0.019989	-0.004883	-0.022278
34.585	0.019226	0.13565	-0.017242	0.012665	0.005646	-0.13702	-0.40024	0.046387	0.34683	-0.021515	-0.09552	-0.004425	1.1845	-0.21347	0.033112	-0.037384	0.033875	0.30579	0.13748	-0.10391	0.000305	0.027924	0.21805	0.068512	-0.017853	0.016022	0.072632	-0.002899	-0.23987	-0.017548	-0.007782	-0.016479
34.586	0.012207	0.057373	-0.11337	0.016174	0.053101	0.072021	-0.41855	0.041504	0.2945	0.038147	-0.028229	-0.002594	-0.39291	0.091553	0.022888	-0.1033	-0.001831	0.30167	-0.097504	-0.16983	-0.019531	0.036774	0.21729	0.071564	-0.024719	0.011902	0.046844	-0.003052	0.039368	-0.026855	-0.006866	-0.016785
34.587	0.012054	-0.01297	-0.062561	0.011292	-0.009918	0.14114	-0.38635	0.016632	0.19577	0.067291	-0.052032	-0.014496	-1.0281	0.22354	-0.13962	-0.041199	-0.027466	0.26794	-0.24918	-0.12482	-0.036163	0.044556	0.18112	0.032349	-0.003052	-0.004578	0.044098	-0.005646	0.22232	-0.043182	-0.003967	-0.0177
34.588	0.034332	-0.10956	-0.13077	0.015717	-0.010681	0.11948	-0.42725	-0.012817	0.1413	0.090942	-0.092316	-0.016327	-0.41931	0.15793	-0.25207	-0.02594	-0.015411	0.26596	-0.17899	-0.078278	-0.03891	0.018616	0.15045	0.032196	-0.003052	-0.019226	0.015564	-0.005646	0.36087	-0.054016	-0.003204	-0.007935
